<svg height="73" viewBox="0 0 73 73" width="73" xmlns="http://www.w3.org/2000/svg"><g fill="none" fill-rule="nonzero"><rect fill="#fff" height="71" rx="14" stroke="#55585e" stroke-width="2" width="71" x="1" y="1"/><g transform="translate(16 14)"><path d="m35.1155992 1.52676518c-.0026093-.84203189-.6847333-1.52415596-1.5267652-1.52676518h-23.66486032v7.6338259c0 .84315016-.68361503 1.52676519-1.52676518 1.52676519h-8.3972085v33.58883401c.00260922.8420319.68473329 1.5241559 1.52676518 1.5267651h32.06206882c.8420319-.0026092 1.5241559-.6847332 1.5267652-1.5267651z" fill="#ffe9cc"/><path d="m11.6974964 40.213638 1.0790978-7.5570403 4.8583637 1.6192061 1.6199515 4.8583636z" fill="#939598"/><path d="m9.92397368 44.2761902h23.66486032c.8431501 0 1.5267652-.683615 1.5267652-1.5267651v-22.0687646c-4.1699029 11.4220375-13.5217124 20.1811818-25.19162552 23.5955297z" fill="#ffe2bd"/><path d="m28.9712639 16.4626736 2.1589414-2.1589414 6.4775697 6.4775696-2.1589414 2.1589414z" fill="#acabb1"/><path d="m34.9583006 11.9088429c-.2583126.0253467-.5136432.0738037-.7633826.144998-.7503365.2135832-1.4335788.6154027-1.9848693 1.1678114l-1.0761159 1.0843164 6.4734694 6.4734694 1.076116-1.0764887c1.3739395-1.3728213 1.7325206-3.4628049.8949617-5.215081s-2.6889853-2.7858992-4.6201793-2.5790255z" fill="#c6c5ca"/><path d="m28.9749914 16.4585734-16.1991426 16.1987698 4.3238467 2.1574504 9.712627-9.7163544-9.712627 9.7163544.9747292 1.9490858 1.1864486 2.3661877 15.7019003-15.7011546.4886691-.4886693-1.2535428-1.25317zm.0693306 6.4078662 1.0802161-1.0794707z" fill="#ffd733"/><path d="m9.92397368 7.6338259v-7.6338259l-9.92397368 9.16059109h8.3972085c.84315015 0 1.52676518-.68361503 1.52676518-1.52676519z" fill="#ffa993"/><path d="m19.142713 33.5321767c-.3090059.0003727-.5878194-.1856272-.7059797-.4711502-.1181604-.285523-.0525572-.6142844.1662444-.8327132l8.1918258-8.1892166c.1871182-.2150741.4786051-.3075149.7555549-.240048.2769499.0670941.4935149.2832865.5609818.5602363.0678397.2769499-.0242284.5684367-.238557.7559277l-8.1903348 8.1933167c-.1431342.1431343-.3373346.2236473-.5397354.2236473z" fill="#f1f2f2"/><path d="m29.4916165 23.1825277c-.3086332-.0003727-.5867013-.1859999-.7048616-.4715229-.1181603-.2851502-.0529298-.6135389.1651262-.831595l1.0794707-1.0794707c.2996873-.2892505.7756832-.2851502 1.0701521.0093187.2944688.2944688.2985691.7704648.0093186 1.070152l-1.0794707 1.0794707c-.1427615.143507-.3369618.22402-.5397353.2236472z" fill="#f1f2f2"/><g fill="#ff7956"><path d="m21.3747125 20.6113299h-16.03103437c-.42157507 0-.76338259-.3418075-.76338259-.7633825 0-.4215751.34180752-.7633826.76338259-.7633826h16.03103437c.4215751 0 .7633826.3418075.7633826.7633826 0 .421575-.3418075.7633825-.7633826.7633825z"/><path d="m16.794417 25.1916255h-11.45073887c-.42157507 0-.76338259-.3418075-.76338259-.7633826s.34180752-.7633826.76338259-.7633826h11.45073887c.4215751 0 .7633826.3418075.7633826.7633826s-.3418075.7633826-.7633826.7633826z"/><path d="m12.2141214 29.771921h-6.87044327c-.42157507 0-.76338259-.3418075-.76338259-.7633826 0-.421575.34180752-.7633826.76338259-.7633826h6.87044327c.4215751 0 .7633826.3418076.7633826.7633826 0 .4215751-.3418075.7633826-.7633826.7633826z"/><path d="m25.9550081 16.0310344h-14.5042692c-.4215751 0-.7633826-.3418075-.7633826-.7633826s.3418075-.7633826.7633826-.7633826h14.5042692c.4215751 0 .7633826.3418075.7633826.7633826s-.3418075.7633826-.7633826.7633826z"/><path d="m8.3972085 16.0310344h-3.05353037c-.42157507 0-.76338259-.3418075-.76338259-.7633826s.34180752-.7633826.76338259-.7633826h3.05353037c.42157507 0 .76338259.3418075.76338259.7633826s-.34180752.7633826-.76338259.7633826z"/></g></g></g></svg>